<svg xmlns="http://www.w3.org/2000/svg" width="33" height="26" viewBox="0 0 33 26" fill="none">
    <path fill-rule="evenodd" clip-rule="evenodd" d="M18.9488 1.59775C19.5945 1.59775 20.026 2.26293 19.7627 2.85248L16.1589 10.9217C16.0156 11.2428 15.6968 11.4495 15.3451 11.4495H11.2764C11.2313 11.4495 11.1866 11.4401 11.1453 11.4219C10.9828 11.3505 10.793 11.4222 10.7185 11.5833L9.60036 14.001C9.33556 14.5735 9.73303 15.2324 10.363 15.2652L11.0637 15.3017C11.4335 15.3209 11.7767 15.1095 11.9259 14.7706L12.2265 14.0873C12.3688 13.7638 12.6889 13.555 13.0423 13.555H13.6322C14.2779 13.555 14.7093 14.2201 14.446 14.8097L10.9609 22.6133C10.8175 22.9343 10.4987 23.1411 10.1471 23.1411H2.57322C2.57267 23.1411 2.5723 23.1405 2.57251 23.14C2.57272 23.1395 2.57234 23.139 2.5718 23.139H1.1399C0.492652 23.139 0.0612326 22.4708 0.32757 21.8809L4.0562 13.6225L0.52604 13.5759C0.143279 13.5708 -0.109272 13.1756 0.0469308 12.8261L0.640705 11.4977C0.726409 11.3059 0.916818 11.1825 1.12685 11.1825H5.15785L9.31536 1.97411C9.41504 1.75333 9.63481 1.61143 9.87705 1.61143H10.2671C10.2717 1.61143 10.2758 1.60875 10.2777 1.60459C10.2796 1.60043 10.2837 1.59775 10.2883 1.59775H18.9488ZM18.8043 11.4495C18.6103 11.4495 18.5449 11.1904 18.7156 11.0983C18.7522 11.0786 18.7812 11.0472 18.7979 11.0091L22.9366 1.60283C22.938 1.59974 22.941 1.59775 22.9444 1.59775C22.9478 1.59775 22.9509 1.59572 22.9522 1.5926L23.3272 0.71506L23.3616 0.637028C23.3617 0.636872 23.3616 0.636699 23.3615 0.636572C23.3615 0.636509 23.3614 0.636458 23.3613 0.636424C23.3611 0.636323 23.361 0.636056 23.3611 0.635825L23.5239 0.254966C23.5898 0.100613 23.7415 0.000488281 23.9094 0.000488281H32.0218C32.6522 0.000488281 33.0833 0.637077 32.8494 1.22249L28.9977 10.8618C28.8624 11.2004 28.5346 11.4224 28.1701 11.4224L25.7012 11.4224C25.6923 11.4224 25.6843 11.4278 25.6809 11.436C25.6775 11.4442 25.6695 11.4495 25.6607 11.4495H18.8043ZM13.4154 23.1411C13.4183 23.1411 13.4202 23.1441 13.4191 23.1467L12.917 24.3069C12.6785 24.8579 13.0824 25.4727 13.6827 25.4727L22.2102 25.4728C22.5729 25.4728 22.8995 25.2529 23.036 24.9168L27.1422 14.8057C27.3802 14.2196 26.949 13.5791 26.3164 13.5791H24.3111C24.3049 13.5791 24.3006 13.5728 24.303 13.567C24.3054 13.5613 24.3012 13.555 24.295 13.555H18.203C17.8496 13.555 17.5296 13.7638 17.3872 14.0873L13.4051 23.1377C13.405 23.138 13.4048 23.1382 13.4045 23.1384C13.4038 23.1388 13.4036 23.1394 13.4038 23.14C13.4039 23.1406 13.4044 23.1411 13.4052 23.1411H13.4154Z" fill="url(#paint0_linear_294_1847)"/>
    <defs>
        <linearGradient id="paint0_linear_294_1847" x1="18.6984" y1="3.86142" x2="32.962" y2="12.7622" gradientUnits="userSpaceOnUse">
            <stop stop-color="white"/>
            <stop offset="1" stop-color="#1F7B69"/>
        </linearGradient>
    </defs>
</svg>
